<svg xmlns="http://www.w3.org/2000/svg" viewBox="0 0 95.99 30.52"><g id="Layer_2" data-name="Layer 2"><g id="Layer_1-2" data-name="Layer 1"><rect x="95" y="22.64" width="0.99" height="0.98"/><rect x="95" y="18.71" width="0.99" height="0.98"/><rect x="95" y="13.78" width="0.99" height="0.98"/><rect x="95" y="9.84" width="0.99" height="0.99"/><rect x="95" y="4.92" width="0.99" height="0.98"/><rect x="95" y="1.96" width="0.99" height="0.99"/><rect x="94.02" y="22.64" width="0.99" height="0.98"/><rect x="94.02" y="18.71" width="0.99" height="0.98"/><rect x="94.02" y="13.78" width="0.99" height="0.98"/><rect x="94.02" y="9.84" width="0.99" height="0.99"/><rect x="94.02" y="4.92" width="0.99" height="0.98"/><rect x="94.02" y="2.95" width="0.99" height="0.98"/><rect x="94.02" y="1.96" width="0.99" height="0.99"/><rect x="94.02" y="0.98" width="0.99" height="0.98"/><rect x="93.03" y="22.64" width="0.99" height="0.98"/><rect x="93.03" y="18.71" width="0.99" height="0.98"/><rect x="93.03" y="13.78" width="0.99" height="0.98"/><rect x="93.03" y="9.84" width="0.99" height="0.99"/><rect x="93.03" y="4.92" width="0.99" height="0.98"/><rect x="93.03" y="3.93" width="0.99" height="0.99"/><rect x="93.03" y="2.95" width="0.99" height="0.98"/><rect x="93.03" y="1.96" width="0.99" height="0.99"/><rect x="93.03" y="0.98" width="0.99" height="0.98"/><rect x="93.03" width="0.99" height="0.98"/><rect x="92.04" y="22.64" width="0.99" height="0.98"/><rect x="92.04" y="18.71" width="0.99" height="0.98"/><rect x="92.04" y="13.78" width="0.99" height="0.98"/><rect x="92.04" y="9.84" width="0.99" height="0.99"/><rect x="92.04" y="4.92" width="0.99" height="0.98"/><rect x="92.04" y="3.93" width="0.99" height="0.99"/><rect x="92.04" y="2.95" width="0.99" height="0.98"/><rect x="92.04" y="1.96" width="0.99" height="0.99"/><rect x="92.04" y="0.98" width="0.99" height="0.98"/><rect x="92.04" width="0.99" height="0.98"/><rect x="91.05" y="22.64" width="0.99" height="0.98"/><rect x="91.05" y="18.71" width="0.99" height="0.98"/><rect x="91.05" y="13.78" width="0.99" height="0.98"/><rect x="91.05" y="9.84" width="0.99" height="0.99"/><rect x="91.05" y="4.92" width="0.99" height="0.98"/><rect x="91.05" y="3.93" width="0.99" height="0.99"/><rect x="91.05" y="2.95" width="0.99" height="0.98"/><rect x="91.05" y="1.96" width="0.99" height="0.99"/><rect x="91.05" y="0.98" width="0.99" height="0.98"/><rect x="91.05" width="0.99" height="0.98"/><rect x="90.06" y="22.64" width="0.99" height="0.98"/><rect x="90.06" y="18.71" width="0.99" height="0.98"/><rect x="90.06" y="13.78" width="0.99" height="0.98"/><rect x="90.06" y="9.84" width="0.99" height="0.99"/><rect x="90.06" y="4.92" width="0.99" height="0.98"/><rect x="90.06" y="3.93" width="0.99" height="0.99"/><rect x="90.06" y="2.95" width="0.99" height="0.98"/><rect x="90.06" y="1.96" width="0.99" height="0.99"/><rect x="90.06" y="0.98" width="0.99" height="0.98"/><rect x="89.07" y="22.64" width="0.99" height="0.98"/><rect x="89.07" y="18.71" width="0.99" height="0.98"/><rect x="89.07" y="13.78" width="0.99" height="0.98"/><rect x="89.07" y="9.84" width="0.99" height="0.99"/><rect x="89.07" y="4.92" width="0.99" height="0.98"/><rect x="89.07" y="3.93" width="0.99" height="0.99"/><rect x="89.07" y="2.95" width="0.99" height="0.98"/><rect x="89.07" y="1.96" width="0.99" height="0.99"/><rect x="89.07" y="0.98" width="0.99" height="0.98"/><rect x="88.08" y="22.64" width="0.99" height="0.98"/><rect x="88.08" y="18.71" width="0.99" height="0.98"/><rect x="88.08" y="17.72" width="0.99" height="0.99"/><rect x="88.08" y="16.74" width="0.99" height="0.98"/><rect x="88.08" y="15.76" width="0.99" height="0.98"/><rect x="88.08" y="14.77" width="0.99" height="0.99"/><rect x="88.08" y="13.78" width="0.99" height="0.98"/><rect x="88.08" y="12.79" width="0.99" height="0.99"/><rect x="88.08" y="11.81" width="0.99" height="0.98"/><rect x="88.08" y="10.83" width="0.99" height="0.98"/><rect x="88.08" y="9.84" width="0.99" height="0.99"/><rect x="88.08" y="8.86" width="0.99" height="0.98"/><rect x="88.08" y="7.88" width="0.99" height="0.98"/><rect x="88.08" y="6.89" width="0.99" height="0.99"/><rect x="88.08" y="5.91" width="0.99" height="0.98"/><rect x="88.08" y="4.92" width="0.99" height="0.98"/><rect x="88.08" y="3.93" width="0.99" height="0.99"/><rect x="88.08" y="2.95" width="0.99" height="0.98"/><rect x="88.08" y="1.96" width="0.99" height="0.99"/><rect x="88.08" y="0.98" width="0.99" height="0.98"/><rect x="87.09" y="22.64" width="0.99" height="0.98"/><rect x="87.09" y="18.71" width="0.99" height="0.98"/><rect x="87.09" y="17.72" width="0.99" height="0.99"/><rect x="87.09" y="16.74" width="0.99" height="0.98"/><rect x="87.09" y="13.78" width="0.99" height="0.98"/><rect x="87.09" y="9.84" width="0.99" height="0.99"/><rect x="87.09" y="4.92" width="0.99" height="0.98"/><rect x="87.09" y="3.93" width="0.99" height="0.99"/><rect x="87.09" y="2.95" width="0.99" height="0.98"/><rect x="86.1" y="22.64" width="0.99" height="0.98"/><rect x="86.1" y="18.71" width="0.99" height="0.98"/><rect x="86.1" y="17.72" width="0.99" height="0.99"/><rect x="86.1" y="16.74" width="0.99" height="0.98"/><rect x="86.1" y="13.78" width="0.99" height="0.98"/><rect x="86.1" y="9.84" width="0.99" height="0.99"/><rect x="86.1" y="4.92" width="0.99" height="0.98"/><rect x="85.11" y="22.64" width="0.99" height="0.98"/><rect x="85.11" y="18.71" width="0.99" height="0.98"/><rect x="85.11" y="17.72" width="0.99" height="0.99"/><rect x="85.11" y="13.78" width="0.99" height="0.98"/><rect x="85.11" y="9.84" width="0.99" height="0.99"/><rect x="85.11" y="4.92" width="0.99" height="0.98"/><rect x="84.12" y="22.64" width="0.99" height="0.98"/><rect x="84.12" y="19.69" width="0.99" height="0.98"/><rect x="84.12" y="18.71" width="0.99" height="0.98"/><rect x="84.12" y="17.72" width="0.99" height="0.99"/><rect x="84.12" y="13.78" width="0.99" height="0.98"/><rect x="84.12" y="9.84" width="0.99" height="0.99"/><rect x="84.12" y="4.92" width="0.99" height="0.98"/><rect x="83.13" y="22.64" width="0.99" height="0.98"/><rect x="83.13" y="19.69" width="0.99" height="0.98"/><rect x="83.13" y="18.71" width="0.99" height="0.98"/><rect x="83.13" y="17.72" width="0.99" height="0.99"/><rect x="83.13" y="13.78" width="0.99" height="0.98"/><rect x="83.13" y="9.84" width="0.99" height="0.99"/><rect x="83.13" y="5.91" width="0.99" height="0.98"/><rect x="83.13" y="4.92" width="0.99" height="0.98"/><rect x="83.13" y="3.93" width="0.99" height="0.99"/><rect x="82.14" y="22.64" width="0.99" height="0.98"/><rect x="82.14" y="19.69" width="0.99" height="0.98"/><rect x="82.14" y="18.71" width="0.99" height="0.98"/><rect x="82.14" y="13.78" width="0.99" height="0.98"/><rect x="82.14" y="9.84" width="0.99" height="0.99"/><rect x="82.14" y="6.89" width="0.99" height="0.99"/><rect x="82.14" y="5.91" width="0.99" height="0.98"/><rect x="82.14" y="4.92" width="0.99" height="0.98"/><rect x="82.14" y="3.93" width="0.99" height="0.99"/><rect x="82.14" y="2.95" width="0.99" height="0.98"/><rect x="81.15" y="22.64" width="0.99" height="0.98"/><rect x="81.15" y="20.67" width="0.99" height="0.99"/><rect x="81.15" y="19.69" width="0.99" height="0.98"/><rect x="81.15" y="18.71" width="0.99" height="0.98"/><rect x="81.15" y="13.78" width="0.99" height="0.98"/><rect x="81.15" y="9.84" width="0.99" height="0.99"/><rect x="81.15" y="6.89" width="0.99" height="0.99"/><rect x="81.15" y="5.91" width="0.99" height="0.98"/><rect x="81.15" y="4.92" width="0.99" height="0.98"/><rect x="81.15" y="3.93" width="0.99" height="0.99"/><rect x="81.15" y="2.95" width="0.99" height="0.98"/><rect x="80.16" y="22.64" width="0.99" height="0.98"/><rect x="80.16" y="20.67" width="0.99" height="0.99"/><rect x="80.16" y="19.69" width="0.99" height="0.98"/><rect x="80.16" y="18.71" width="0.99" height="0.98"/><rect x="80.16" y="13.78" width="0.99" height="0.98"/><rect x="80.16" y="9.84" width="0.99" height="0.99"/><rect x="80.16" y="6.89" width="0.99" height="0.99"/><rect x="80.16" y="5.91" width="0.99" height="0.98"/><rect x="80.16" y="4.92" width="0.99" height="0.98"/><rect x="80.16" y="3.93" width="0.99" height="0.99"/><rect x="79.17" y="22.64" width="0.99" height="0.98"/><rect x="79.17" y="21.66" width="0.99" height="0.98"/><rect x="79.17" y="20.67" width="0.99" height="0.99"/><rect x="79.17" y="19.69" width="0.99" height="0.98"/><rect x="79.17" y="18.71" width="0.99" height="0.98"/><rect x="79.17" y="13.78" width="0.99" height="0.98"/><rect x="79.17" y="9.84" width="0.99" height="0.99"/><rect x="79.17" y="6.89" width="0.99" height="0.99"/><rect x="79.17" y="5.91" width="0.99" height="0.98"/><rect x="79.17" y="4.92" width="0.99" height="0.98"/><rect x="79.17" y="3.93" width="0.99" height="0.99"/><rect x="78.18" y="22.64" width="0.99" height="0.98"/><rect x="78.18" y="21.66" width="0.99" height="0.98"/><rect x="78.18" y="20.67" width="0.99" height="0.99"/><rect x="78.18" y="19.69" width="0.99" height="0.98"/><rect x="78.18" y="18.71" width="0.99" height="0.98"/><rect x="78.18" y="17.72" width="0.99" height="0.99"/><rect x="78.18" y="16.74" width="0.99" height="0.98"/><rect x="78.18" y="15.76" width="0.99" height="0.98"/><rect x="78.18" y="14.77" width="0.99" height="0.99"/><rect x="78.18" y="13.78" width="0.99" height="0.98"/><rect x="78.18" y="12.79" width="0.99" height="0.99"/><rect x="78.18" y="11.81" width="0.99" height="0.98"/><rect x="78.18" y="10.83" width="0.99" height="0.98"/><rect x="78.18" y="9.84" width="0.99" height="0.99"/><rect x="78.18" y="8.86" width="0.99" height="0.98"/><rect x="78.18" y="7.88" width="0.99" height="0.98"/><rect x="78.18" y="6.89" width="0.99" height="0.99"/><rect x="78.18" y="5.91" width="0.99" height="0.98"/><rect x="78.18" y="4.92" width="0.99" height="0.98"/><rect x="78.18" y="3.93" width="0.99" height="0.99"/><rect x="77.19" y="22.64" width="0.99" height="0.98"/><rect x="77.19" y="18.71" width="0.99" height="0.98"/><rect x="77.19" y="13.78" width="0.99" height="0.98"/><rect x="77.19" y="9.84" width="0.99" height="0.99"/><rect x="77.19" y="4.92" width="0.99" height="0.98"/><rect x="76.2" y="22.64" width="0.99" height="0.98"/><rect x="76.2" y="18.71" width="0.99" height="0.98"/><rect x="76.2" y="13.78" width="0.99" height="0.98"/><rect x="76.2" y="9.84" width="0.99" height="0.99"/><rect x="76.2" y="5.91" width="0.99" height="0.98"/><rect x="76.2" y="4.92" width="0.99" height="0.98"/><rect x="76.2" y="3.93" width="0.99" height="0.99"/><rect x="75.21" y="22.64" width="0.99" height="0.98"/><rect x="75.21" y="18.71" width="0.99" height="0.98"/><rect x="75.21" y="13.78" width="0.99" height="0.98"/><rect x="75.21" y="9.84" width="0.99" height="0.99"/><rect x="75.21" y="6.89" width="0.99" height="0.99"/><rect x="75.21" y="5.91" width="0.99" height="0.98"/><rect x="75.21" y="4.92" width="0.99" height="0.98"/><rect x="75.21" y="3.93" width="0.99" height="0.99"/><rect x="75.21" y="2.95" width="0.99" height="0.98"/><rect x="74.22" y="22.64" width="0.99" height="0.98"/><rect x="74.22" y="18.71" width="0.99" height="0.98"/><rect x="74.22" y="13.78" width="0.99" height="0.98"/><rect x="74.22" y="9.84" width="0.99" height="0.99"/><rect x="74.22" y="6.89" width="0.99" height="0.99"/><rect x="74.22" y="5.91" width="0.99" height="0.98"/><rect x="74.22" y="4.92" width="0.99" height="0.98"/><rect x="74.22" y="3.93" width="0.99" height="0.99"/><rect x="74.22" y="2.95" width="0.99" height="0.98"/><rect x="73.23" y="22.64" width="0.99" height="0.98"/><rect x="73.23" y="18.71" width="0.99" height="0.98"/><rect x="73.23" y="13.78" width="0.99" height="0.98"/><rect x="73.23" y="9.84" width="0.99" height="0.99"/><rect x="73.23" y="7.88" width="0.99" height="0.98"/><rect x="73.23" y="6.89" width="0.99" height="0.99"/><rect x="73.23" y="5.91" width="0.99" height="0.98"/><rect x="73.23" y="4.92" width="0.99" height="0.98"/><rect x="73.23" y="3.93" width="0.99" height="0.99"/><rect x="73.23" y="2.95" width="0.99" height="0.98"/><rect x="72.24" y="22.64" width="0.99" height="0.98"/><rect x="72.24" y="18.71" width="0.99" height="0.98"/><rect x="72.24" y="13.78" width="0.99" height="0.98"/><rect x="72.24" y="9.84" width="0.99" height="0.99"/><rect x="72.24" y="7.88" width="0.99" height="0.98"/><rect x="72.24" y="6.89" width="0.99" height="0.99"/><rect x="72.24" y="5.91" width="0.99" height="0.98"/><rect x="72.24" y="4.92" width="0.99" height="0.98"/><rect x="72.24" y="3.93" width="0.99" height="0.99"/><rect x="72.24" y="2.95" width="0.99" height="0.98"/><rect x="71.25" y="22.64" width="0.99" height="0.98"/><rect x="71.25" y="18.71" width="0.99" height="0.98"/><rect x="71.25" y="13.78" width="0.99" height="0.98"/><rect x="71.25" y="9.84" width="0.99" height="0.99"/><rect x="71.25" y="7.88" width="0.99" height="0.98"/><rect x="71.25" y="6.89" width="0.99" height="0.99"/><rect x="71.25" y="5.91" width="0.99" height="0.98"/><rect x="71.25" y="4.92" width="0.99" height="0.98"/><rect x="71.25" y="3.93" width="0.99" height="0.99"/><rect x="70.26" y="22.64" width="0.99" height="0.98"/><rect x="70.26" y="21.66" width="0.99" height="0.98"/><rect x="70.26" y="20.67" width="0.99" height="0.99"/><rect x="70.26" y="19.69" width="0.99" height="0.98"/><rect x="70.26" y="18.71" width="0.99" height="0.98"/><rect x="70.26" y="17.72" width="0.99" height="0.99"/><rect x="70.26" y="16.74" width="0.99" height="0.98"/><rect x="70.26" y="15.76" width="0.99" height="0.98"/><rect x="70.26" y="14.77" width="0.99" height="0.99"/><rect x="70.26" y="13.78" width="0.99" height="0.98"/><rect x="70.26" y="12.79" width="0.99" height="0.99"/><rect x="70.26" y="11.81" width="0.99" height="0.98"/><rect x="70.26" y="10.83" width="0.99" height="0.98"/><rect x="70.26" y="9.84" width="0.99" height="0.99"/><rect x="70.26" y="8.86" width="0.99" height="0.98"/><rect x="70.26" y="7.88" width="0.99" height="0.98"/><rect x="70.26" y="6.89" width="0.99" height="0.99"/><rect x="70.26" y="5.91" width="0.99" height="0.98"/><rect x="70.26" y="4.92" width="0.99" height="0.98"/><rect x="69.27" y="22.64" width="0.99" height="0.98"/><rect x="69.27" y="18.71" width="0.99" height="0.98"/><rect x="69.27" y="13.78" width="0.99" height="0.98"/><rect x="69.27" y="9.84" width="0.99" height="0.99"/><rect x="69.27" y="4.92" width="0.99" height="0.98"/><rect x="68.28" y="22.64" width="0.99" height="0.98"/><rect x="68.28" y="18.71" width="0.99" height="0.98"/><rect x="68.28" y="13.78" width="0.99" height="0.98"/><rect x="68.28" y="9.84" width="0.99" height="0.99"/><rect x="68.28" y="4.92" width="0.99" height="0.98"/><rect x="67.29" y="22.64" width="0.99" height="0.98"/><rect x="67.29" y="18.71" width="0.99" height="0.98"/><rect x="67.29" y="13.78" width="0.99" height="0.98"/><rect x="67.29" y="9.84" width="0.99" height="0.99"/><rect x="67.29" y="4.92" width="0.99" height="0.98"/><rect x="66.31" y="22.64" width="0.99" height="0.98"/><rect x="66.31" y="18.71" width="0.99" height="0.98"/><rect x="66.31" y="13.78" width="0.99" height="0.98"/><rect x="66.31" y="9.84" width="0.99" height="0.99"/><rect x="66.31" y="4.92" width="0.99" height="0.98"/><rect x="65.32" y="22.64" width="0.99" height="0.98"/><rect x="65.32" y="18.71" width="0.99" height="0.98"/><rect x="65.32" y="13.78" width="0.99" height="0.98"/><rect x="65.32" y="9.84" width="0.99" height="0.99"/><rect x="65.32" y="6.89" width="0.99" height="0.99"/><rect x="65.32" y="5.91" width="0.99" height="0.98"/><rect x="65.32" y="4.92" width="0.99" height="0.98"/><rect x="64.33" y="22.64" width="0.99" height="0.98"/><rect x="64.33" y="18.71" width="0.99" height="0.98"/><rect x="64.33" y="13.78" width="0.99" height="0.98"/><rect x="64.33" y="9.84" width="0.99" height="0.99"/><rect x="64.33" y="8.86" width="0.99" height="0.98"/><rect x="64.33" y="7.88" width="0.99" height="0.98"/><rect x="64.33" y="6.89" width="0.99" height="0.99"/><rect x="64.33" y="5.91" width="0.99" height="0.98"/><rect x="64.33" y="4.92" width="0.99" height="0.98"/><rect x="63.34" y="22.64" width="0.99" height="0.98"/><rect x="63.34" y="18.71" width="0.99" height="0.98"/><rect x="63.34" y="13.78" width="0.99" height="0.98"/><rect x="63.34" y="9.84" width="0.99" height="0.99"/><rect x="63.34" y="8.86" width="0.99" height="0.98"/><rect x="63.34" y="7.88" width="0.99" height="0.98"/><rect x="63.34" y="6.89" width="0.99" height="0.99"/><rect x="63.34" y="5.91" width="0.99" height="0.98"/><rect x="63.34" y="4.92" width="0.99" height="0.98"/><rect x="62.35" y="22.64" width="0.99" height="0.98"/><rect x="62.35" y="18.71" width="0.99" height="0.98"/><rect x="62.35" y="13.78" width="0.99" height="0.98"/><rect x="62.35" y="9.84" width="0.99" height="0.99"/><rect x="62.35" y="8.86" width="0.99" height="0.98"/><rect x="62.35" y="7.88" width="0.99" height="0.98"/><rect x="62.35" y="6.89" width="0.99" height="0.99"/><rect x="62.35" y="5.91" width="0.99" height="0.98"/><rect x="62.35" y="4.92" width="0.99" height="0.98"/><rect x="61.36" y="22.64" width="0.99" height="0.98"/><rect x="61.36" y="18.71" width="0.99" height="0.98"/><rect x="61.36" y="13.78" width="0.99" height="0.98"/><rect x="61.36" y="9.84" width="0.99" height="0.99"/><rect x="61.36" y="8.86" width="0.99" height="0.98"/><rect x="61.36" y="7.88" width="0.99" height="0.98"/><rect x="61.36" y="6.89" width="0.99" height="0.99"/><rect x="61.36" y="5.91" width="0.99" height="0.98"/><rect x="61.36" y="4.92" width="0.99" height="0.98"/><rect x="60.37" y="22.64" width="0.99" height="0.98"/><rect x="60.37" y="18.71" width="0.99" height="0.98"/><rect x="60.37" y="13.78" width="0.99" height="0.98"/><rect x="60.37" y="9.84" width="0.99" height="0.99"/><rect x="60.37" y="8.86" width="0.99" height="0.98"/><rect x="60.37" y="7.88" width="0.99" height="0.98"/><rect x="60.37" y="6.89" width="0.99" height="0.99"/><rect x="60.37" y="4.92" width="0.99" height="0.98"/><rect x="59.38" y="22.64" width="0.99" height="0.98"/><rect x="59.38" y="21.66" width="0.99" height="0.98"/><rect x="59.38" y="20.67" width="0.99" height="0.99"/><rect x="59.38" y="19.69" width="0.99" height="0.98"/><rect x="59.38" y="18.71" width="0.99" height="0.98"/><rect x="59.38" y="17.72" width="0.99" height="0.99"/><rect x="59.38" y="16.74" width="0.99" height="0.98"/><rect x="59.38" y="15.76" width="0.99" height="0.98"/><rect x="59.38" y="14.77" width="0.99" height="0.99"/><rect x="59.38" y="13.78" width="0.99" height="0.98"/><rect x="59.38" y="12.79" width="0.99" height="0.99"/><rect x="59.38" y="11.81" width="0.99" height="0.98"/><rect x="59.38" y="10.83" width="0.99" height="0.98"/><rect x="59.38" y="9.84" width="0.99" height="0.99"/><rect x="59.38" y="8.86" width="0.99" height="0.98"/><rect x="59.38" y="7.88" width="0.99" height="0.98"/><rect x="59.38" y="4.92" width="0.99" height="0.98"/><rect x="58.39" y="22.64" width="0.99" height="0.98"/><rect x="58.39" y="18.71" width="0.99" height="0.98"/><rect x="58.39" y="13.78" width="0.99" height="0.98"/><rect x="58.39" y="9.84" width="0.99" height="0.99"/><rect x="58.39" y="4.92" width="0.99" height="0.98"/><rect x="57.4" y="22.64" width="0.99" height="0.98"/><rect x="57.4" y="18.71" width="0.99" height="0.98"/><rect x="57.4" y="13.78" width="0.99" height="0.98"/><rect x="57.4" y="9.84" width="0.99" height="0.99"/><rect x="57.4" y="4.92" width="0.99" height="0.98"/><rect x="56.41" y="22.64" width="0.99" height="0.98"/><rect x="56.41" y="18.71" width="0.99" height="0.98"/><rect x="56.41" y="13.78" width="0.99" height="0.98"/><rect x="56.41" y="9.84" width="0.99" height="0.99"/><rect x="56.41" y="4.92" width="0.99" height="0.98"/><rect x="55.42" y="22.64" width="0.99" height="0.98"/><rect x="55.42" y="18.71" width="0.99" height="0.98"/><rect x="55.42" y="13.78" width="0.99" height="0.98"/><rect x="55.42" y="11.81" width="0.99" height="0.98"/><rect x="55.42" y="10.83" width="0.99" height="0.98"/><rect x="55.42" y="9.84" width="0.99" height="0.99"/><rect x="55.42" y="4.92" width="0.99" height="0.98"/><rect x="54.43" y="22.64" width="0.99" height="0.98"/><rect x="54.43" y="18.71" width="0.99" height="0.98"/><rect x="54.43" y="13.78" width="0.99" height="0.98"/><rect x="54.43" y="12.79" width="0.99" height="0.99"/><rect x="54.43" y="11.81" width="0.99" height="0.98"/><rect x="54.43" y="10.83" width="0.99" height="0.98"/><rect x="54.43" y="9.84" width="0.99" height="0.99"/><rect x="54.43" y="4.92" width="0.99" height="0.98"/><rect x="53.44" y="22.64" width="0.99" height="0.98"/><rect x="53.44" y="18.71" width="0.99" height="0.98"/><rect x="53.44" y="13.78" width="0.99" height="0.98"/><rect x="53.44" y="12.79" width="0.99" height="0.99"/><rect x="53.44" y="11.81" width="0.99" height="0.98"/><rect x="53.44" y="10.83" width="0.99" height="0.98"/><rect x="53.44" y="9.84" width="0.99" height="0.99"/><rect x="53.44" y="4.92" width="0.99" height="0.98"/><rect x="52.45" y="22.64" width="0.99" height="0.98"/><rect x="52.45" y="18.71" width="0.99" height="0.98"/><rect x="52.45" y="13.78" width="0.99" height="0.98"/><rect x="52.45" y="12.79" width="0.99" height="0.99"/><rect x="52.45" y="11.81" width="0.99" height="0.98"/><rect x="52.45" y="10.83" width="0.99" height="0.98"/><rect x="52.45" y="9.84" width="0.99" height="0.99"/><rect x="52.45" y="4.92" width="0.99" height="0.98"/><rect x="51.46" y="22.64" width="0.99" height="0.98"/><rect x="51.46" y="18.71" width="0.99" height="0.98"/><rect x="51.46" y="13.78" width="0.99" height="0.98"/><rect x="51.46" y="12.79" width="0.99" height="0.99"/><rect x="51.46" y="11.81" width="0.99" height="0.98"/><rect x="51.46" y="10.83" width="0.99" height="0.98"/><rect x="51.46" y="9.84" width="0.99" height="0.99"/><rect x="51.46" y="4.92" width="0.99" height="0.98"/><rect x="50.47" y="22.64" width="0.99" height="0.98"/><rect x="50.47" y="18.71" width="0.99" height="0.98"/><rect x="50.47" y="13.78" width="0.99" height="0.98"/><rect x="50.47" y="12.79" width="0.99" height="0.99"/><rect x="50.47" y="11.81" width="0.99" height="0.98"/><rect x="50.47" y="10.83" width="0.99" height="0.98"/><rect x="50.47" y="9.84" width="0.99" height="0.99"/><rect x="50.47" y="4.92" width="0.99" height="0.98"/><rect x="49.48" y="26.58" width="0.99" height="0.99"/><rect x="49.48" y="25.6" width="0.99" height="0.98"/><rect x="49.48" y="24.62" width="0.99" height="0.98"/><rect x="49.48" y="23.63" width="0.99" height="0.99"/><rect x="49.48" y="22.64" width="0.99" height="0.98"/><rect x="49.48" y="21.66" width="0.99" height="0.98"/><rect x="49.48" y="20.67" width="0.99" height="0.99"/><rect x="49.48" y="19.69" width="0.99" height="0.98"/><rect x="49.48" y="18.71" width="0.99" height="0.98"/><rect x="49.48" y="17.72" width="0.99" height="0.99"/><rect x="49.48" y="16.74" width="0.99" height="0.98"/><rect x="49.48" y="15.76" width="0.99" height="0.98"/><rect x="49.48" y="14.77" width="0.99" height="0.99"/><rect x="49.48" y="13.78" width="0.99" height="0.98"/><rect x="49.48" y="12.79" width="0.99" height="0.99"/><rect x="49.48" y="11.81" width="0.99" height="0.98"/><rect x="49.48" y="9.84" width="0.99" height="0.99"/><rect x="49.48" y="4.92" width="0.99" height="0.98"/><rect x="48.49" y="26.58" width="0.99" height="0.99"/><rect x="48.49" y="25.6" width="0.99" height="0.98"/><rect x="48.49" y="22.64" width="0.99" height="0.98"/><rect x="48.49" y="18.71" width="0.99" height="0.98"/><rect x="48.49" y="13.78" width="0.99" height="0.98"/><rect x="48.49" y="9.84" width="0.99" height="0.99"/><rect x="48.49" y="4.92" width="0.99" height="0.98"/><rect x="47.5" y="26.58" width="0.99" height="0.99"/><rect x="47.5" y="25.6" width="0.99" height="0.98"/><rect x="47.5" y="22.64" width="0.99" height="0.98"/><rect x="47.5" y="18.71" width="0.99" height="0.98"/><rect x="47.5" y="13.78" width="0.99" height="0.98"/><rect x="47.5" y="9.84" width="0.99" height="0.99"/><rect x="47.5" y="4.92" width="0.99" height="0.98"/><rect x="46.51" y="27.57" width="0.99" height="0.98"/><rect x="46.51" y="26.58" width="0.99" height="0.99"/><rect x="46.51" y="25.6" width="0.99" height="0.98"/><rect x="46.51" y="22.64" width="0.99" height="0.98"/><rect x="46.51" y="18.71" width="0.99" height="0.98"/><rect x="46.51" y="13.78" width="0.99" height="0.98"/><rect x="46.51" y="9.84" width="0.99" height="0.99"/><rect x="46.51" y="4.92" width="0.99" height="0.98"/><rect x="45.52" y="27.57" width="0.99" height="0.98"/><rect x="45.52" y="26.58" width="0.99" height="0.99"/><rect x="45.52" y="25.6" width="0.99" height="0.98"/><rect x="45.52" y="22.64" width="0.99" height="0.98"/><rect x="45.52" y="18.71" width="0.99" height="0.98"/><rect x="45.52" y="13.78" width="0.99" height="0.98"/><rect x="45.52" y="12.79" width="0.99" height="0.99"/><rect x="45.52" y="9.84" width="0.99" height="0.99"/><rect x="45.52" y="4.92" width="0.99" height="0.98"/><rect x="44.53" y="27.57" width="0.99" height="0.98"/><rect x="44.53" y="26.58" width="0.99" height="0.99"/><rect x="44.53" y="25.6" width="0.99" height="0.98"/><rect x="44.53" y="22.64" width="0.99" height="0.98"/><rect x="44.53" y="18.71" width="0.99" height="0.98"/><rect x="44.53" y="14.77" width="0.99" height="0.99"/><rect x="44.53" y="13.78" width="0.99" height="0.98"/><rect x="44.53" y="12.79" width="0.99" height="0.99"/><rect x="44.53" y="11.81" width="0.99" height="0.98"/><rect x="44.53" y="9.84" width="0.99" height="0.99"/><rect x="44.53" y="4.92" width="0.99" height="0.98"/><rect x="43.54" y="27.57" width="0.99" height="0.98"/><rect x="43.54" y="26.58" width="0.99" height="0.99"/><rect x="43.54" y="25.6" width="0.99" height="0.98"/><rect x="43.54" y="22.64" width="0.99" height="0.98"/><rect x="43.54" y="18.71" width="0.99" height="0.98"/><rect x="43.54" y="15.76" width="0.99" height="0.98"/><rect x="43.54" y="14.77" width="0.99" height="0.99"/><rect x="43.54" y="13.78" width="0.99" height="0.98"/><rect x="43.54" y="12.79" width="0.99" height="0.99"/><rect x="43.54" y="11.81" width="0.99" height="0.98"/><rect x="43.54" y="9.84" width="0.99" height="0.99"/><rect x="43.54" y="4.92" width="0.99" height="0.98"/><rect x="42.55" y="27.57" width="0.99" height="0.98"/><rect x="42.55" y="26.58" width="0.99" height="0.99"/><rect x="42.55" y="22.64" width="0.99" height="0.98"/><rect x="42.55" y="18.71" width="0.99" height="0.98"/><rect x="42.55" y="15.76" width="0.99" height="0.98"/><rect x="42.55" y="14.77" width="0.99" height="0.99"/><rect x="42.55" y="13.78" width="0.99" height="0.98"/><rect x="42.55" y="12.79" width="0.99" height="0.99"/><rect x="42.55" y="11.81" width="0.99" height="0.98"/><rect x="42.55" y="9.84" width="0.99" height="0.99"/><rect x="42.55" y="4.92" width="0.99" height="0.98"/><rect x="41.56" y="27.57" width="0.99" height="0.98"/><rect x="41.56" y="26.58" width="0.99" height="0.99"/><rect x="41.56" y="22.64" width="0.99" height="0.98"/><rect x="41.56" y="18.71" width="0.99" height="0.98"/><rect x="41.56" y="15.76" width="0.99" height="0.98"/><rect x="41.56" y="14.77" width="0.99" height="0.99"/><rect x="41.56" y="13.78" width="0.99" height="0.98"/><rect x="41.56" y="12.79" width="0.99" height="0.99"/><rect x="41.56" y="9.84" width="0.99" height="0.99"/><rect x="41.56" y="4.92" width="0.99" height="0.98"/><rect x="40.57" y="27.57" width="0.99" height="0.98"/><rect x="40.57" y="26.58" width="0.99" height="0.99"/><rect x="40.57" y="25.6" width="0.99" height="0.98"/><rect x="40.57" y="24.62" width="0.99" height="0.98"/><rect x="40.57" y="23.63" width="0.99" height="0.99"/><rect x="40.57" y="22.64" width="0.99" height="0.98"/><rect x="40.57" y="21.66" width="0.99" height="0.98"/><rect x="40.57" y="20.67" width="0.99" height="0.99"/><rect x="40.57" y="19.69" width="0.99" height="0.98"/><rect x="40.57" y="18.71" width="0.99" height="0.98"/><rect x="40.57" y="17.72" width="0.99" height="0.99"/><rect x="40.57" y="16.74" width="0.99" height="0.98"/><rect x="40.57" y="15.76" width="0.99" height="0.98"/><rect x="40.57" y="14.77" width="0.99" height="0.99"/><rect x="40.57" y="13.78" width="0.99" height="0.98"/><rect x="40.57" y="9.84" width="0.99" height="0.99"/><rect x="40.57" y="4.92" width="0.99" height="0.98"/><rect x="39.59" y="27.57" width="0.99" height="0.98"/><rect x="39.59" y="26.58" width="0.99" height="0.99"/><rect x="39.59" y="22.64" width="0.99" height="0.98"/><rect x="39.59" y="18.71" width="0.99" height="0.98"/><rect x="39.59" y="13.78" width="0.99" height="0.98"/><rect x="39.59" y="9.84" width="0.99" height="0.99"/><rect x="39.59" y="4.92" width="0.99" height="0.98"/><rect x="38.6" y="27.57" width="0.99" height="0.98"/><rect x="38.6" y="26.58" width="0.99" height="0.99"/><rect x="38.6" y="22.64" width="0.99" height="0.98"/><rect x="38.6" y="18.71" width="0.99" height="0.98"/><rect x="38.6" y="13.78" width="0.99" height="0.98"/><rect x="38.6" y="9.84" width="0.99" height="0.99"/><rect x="38.6" y="4.92" width="0.99" height="0.98"/><rect x="37.61" y="27.57" width="0.99" height="0.98"/><rect x="37.61" y="26.58" width="0.99" height="0.99"/><rect x="37.61" y="22.64" width="0.99" height="0.98"/><rect x="37.61" y="18.71" width="0.99" height="0.98"/><rect x="37.61" y="13.78" width="0.99" height="0.98"/><rect x="37.61" y="9.84" width="0.99" height="0.99"/><rect x="37.61" y="4.92" width="0.99" height="0.98"/><rect x="36.62" y="27.57" width="0.99" height="0.98"/><rect x="36.62" y="26.58" width="0.99" height="0.99"/><rect x="36.62" y="22.64" width="0.99" height="0.98"/><rect x="36.62" y="18.71" width="0.99" height="0.98"/><rect x="36.62" y="13.78" width="0.99" height="0.98"/><rect x="36.62" y="9.84" width="0.99" height="0.99"/><rect x="36.62" y="4.92" width="0.99" height="0.98"/><rect x="35.63" y="27.57" width="0.99" height="0.98"/><rect x="35.63" y="22.64" width="0.99" height="0.98"/><rect x="35.63" y="18.71" width="0.99" height="0.98"/><rect x="35.63" y="16.74" width="0.99" height="0.98"/><rect x="35.63" y="15.76" width="0.99" height="0.98"/><rect x="35.63" y="14.77" width="0.99" height="0.99"/><rect x="35.63" y="13.78" width="0.99" height="0.98"/><rect x="35.63" y="9.84" width="0.99" height="0.99"/><rect x="35.63" y="4.92" width="0.99" height="0.98"/><rect x="34.64" y="28.55" width="0.99" height="0.99"/><rect x="34.64" y="27.57" width="0.99" height="0.98"/><rect x="34.64" y="22.64" width="0.99" height="0.98"/><rect x="34.64" y="18.71" width="0.99" height="0.98"/><rect x="34.64" y="16.74" width="0.99" height="0.98"/><rect x="34.64" y="15.76" width="0.99" height="0.98"/><rect x="34.64" y="14.77" width="0.99" height="0.99"/><rect x="34.64" y="13.78" width="0.99" height="0.98"/><rect x="34.64" y="9.84" width="0.99" height="0.99"/><rect x="34.64" y="4.92" width="0.99" height="0.98"/><rect x="33.65" y="28.55" width="0.99" height="0.99"/><rect x="33.65" y="27.57" width="0.99" height="0.98"/><rect x="33.65" y="22.64" width="0.99" height="0.98"/><rect x="33.65" y="18.71" width="0.99" height="0.98"/><rect x="33.65" y="17.72" width="0.99" height="0.99"/><rect x="33.65" y="16.74" width="0.99" height="0.98"/><rect x="33.65" y="15.76" width="0.99" height="0.98"/><rect x="33.65" y="14.77" width="0.99" height="0.99"/><rect x="33.65" y="13.78" width="0.99" height="0.98"/><rect x="33.65" y="9.84" width="0.99" height="0.99"/><rect x="33.65" y="4.92" width="0.99" height="0.98"/><rect x="32.66" y="28.55" width="0.99" height="0.99"/><rect x="32.66" y="27.57" width="0.99" height="0.98"/><rect x="32.66" y="22.64" width="0.99" height="0.98"/><rect x="32.66" y="18.71" width="0.99" height="0.98"/><rect x="32.66" y="17.72" width="0.99" height="0.99"/><rect x="32.66" y="16.74" width="0.99" height="0.98"/><rect x="32.66" y="15.76" width="0.99" height="0.98"/><rect x="32.66" y="14.77" width="0.99" height="0.99"/><rect x="32.66" y="13.78" width="0.99" height="0.98"/><rect x="32.66" y="9.84" width="0.99" height="0.99"/><rect x="32.66" y="4.92" width="0.99" height="0.98"/><rect x="31.67" y="28.55" width="0.99" height="0.99"/><rect x="31.67" y="27.57" width="0.99" height="0.98"/><rect x="31.67" y="22.64" width="0.99" height="0.98"/><rect x="31.67" y="18.71" width="0.99" height="0.98"/><rect x="31.67" y="17.72" width="0.99" height="0.99"/><rect x="31.67" y="16.74" width="0.99" height="0.98"/><rect x="31.67" y="15.76" width="0.99" height="0.98"/><rect x="31.67" y="13.78" width="0.99" height="0.98"/><rect x="31.67" y="9.84" width="0.99" height="0.99"/><rect x="31.67" y="4.92" width="0.99" height="0.98"/><rect x="30.68" y="28.55" width="0.99" height="0.99"/><rect x="30.68" y="27.57" width="0.99" height="0.98"/><rect x="30.68" y="26.58" width="0.99" height="0.99"/><rect x="30.68" y="25.6" width="0.99" height="0.98"/><rect x="30.68" y="24.62" width="0.99" height="0.98"/><rect x="30.68" y="23.63" width="0.99" height="0.99"/><rect x="30.68" y="22.64" width="0.99" height="0.98"/><rect x="30.68" y="21.66" width="0.99" height="0.98"/><rect x="30.68" y="20.67" width="0.99" height="0.99"/><rect x="30.68" y="19.69" width="0.99" height="0.98"/><rect x="30.68" y="18.71" width="0.99" height="0.98"/><rect x="30.68" y="17.72" width="0.99" height="0.99"/><rect x="30.68" y="16.74" width="0.99" height="0.98"/><rect x="30.68" y="15.76" width="0.99" height="0.98"/><rect x="30.68" y="13.78" width="0.99" height="0.98"/><rect x="30.68" y="9.84" width="0.99" height="0.99"/><rect x="30.68" y="4.92" width="0.99" height="0.98"/><rect x="29.69" y="22.64" width="0.99" height="0.98"/><rect x="29.69" y="18.71" width="0.99" height="0.98"/><rect x="29.69" y="13.78" width="0.99" height="0.98"/><rect x="29.69" y="9.84" width="0.99" height="0.99"/><rect x="29.69" y="4.92" width="0.99" height="0.98"/><rect x="28.7" y="22.64" width="0.99" height="0.98"/><rect x="28.7" y="18.71" width="0.99" height="0.98"/><rect x="28.7" y="16.74" width="0.99" height="0.98"/><rect x="28.7" y="15.76" width="0.99" height="0.98"/><rect x="28.7" y="14.77" width="0.99" height="0.99"/><rect x="28.7" y="13.78" width="0.99" height="0.98"/><rect x="28.7" y="9.84" width="0.99" height="0.99"/><rect x="28.7" y="4.92" width="0.99" height="0.98"/><rect x="27.71" y="22.64" width="0.99" height="0.98"/><rect x="27.71" y="18.71" width="0.99" height="0.98"/><rect x="27.71" y="17.72" width="0.99" height="0.99"/><rect x="27.71" y="16.74" width="0.99" height="0.98"/><rect x="27.71" y="13.78" width="0.99" height="0.98"/><rect x="27.71" y="12.79" width="0.99" height="0.99"/><rect x="27.71" y="9.84" width="0.99" height="0.99"/><rect x="27.71" y="4.92" width="0.99" height="0.98"/><rect x="26.72" y="22.64" width="0.99" height="0.98"/><rect x="26.72" y="18.71" width="0.99" height="0.98"/><rect x="26.72" y="17.72" width="0.99" height="0.99"/><rect x="26.72" y="13.78" width="0.99" height="0.98"/><rect x="26.72" y="9.84" width="0.99" height="0.99"/><rect x="26.72" y="4.92" width="0.99" height="0.98"/><rect x="25.73" y="22.64" width="0.99" height="0.98"/><rect x="25.73" y="18.71" width="0.99" height="0.98"/><rect x="25.73" y="17.72" width="0.99" height="0.99"/><rect x="25.73" y="16.74" width="0.99" height="0.98"/><rect x="25.73" y="15.76" width="0.99" height="0.98"/><rect x="25.73" y="14.77" width="0.99" height="0.99"/><rect x="25.73" y="13.78" width="0.99" height="0.98"/><rect x="25.73" y="12.79" width="0.99" height="0.99"/><rect x="25.73" y="11.81" width="0.99" height="0.98"/><rect x="25.73" y="10.83" width="0.99" height="0.98"/><rect x="25.73" y="9.84" width="0.99" height="0.99"/><rect x="25.73" y="8.86" width="0.99" height="0.98"/><rect x="25.73" y="4.92" width="0.99" height="0.98"/><rect x="24.74" y="22.64" width="0.99" height="0.98"/><rect x="24.74" y="18.71" width="0.99" height="0.98"/><rect x="24.74" y="13.78" width="0.99" height="0.98"/><rect x="24.74" y="9.84" width="0.99" height="0.99"/><rect x="24.74" y="4.92" width="0.99" height="0.98"/><rect x="23.75" y="22.64" width="0.99" height="0.98"/><rect x="23.75" y="18.71" width="0.99" height="0.98"/><rect x="23.75" y="13.78" width="0.99" height="0.98"/><rect x="23.75" y="9.84" width="0.99" height="0.99"/><rect x="23.75" y="8.86" width="0.99" height="0.98"/><rect x="23.75" y="7.88" width="0.99" height="0.98"/><rect x="23.75" y="6.89" width="0.99" height="0.99"/><rect x="23.75" y="5.91" width="0.99" height="0.98"/><rect x="23.75" y="4.92" width="0.99" height="0.98"/><rect x="22.76" y="22.64" width="0.99" height="0.98"/><rect x="22.76" y="18.71" width="0.99" height="0.98"/><rect x="22.76" y="13.78" width="0.99" height="0.98"/><rect x="22.76" y="9.84" width="0.99" height="0.99"/><rect x="22.76" y="8.86" width="0.99" height="0.98"/><rect x="22.76" y="5.91" width="0.99" height="0.98"/><rect x="22.76" y="4.92" width="0.99" height="0.98"/><rect x="21.77" y="22.64" width="0.99" height="0.98"/><rect x="21.77" y="18.71" width="0.99" height="0.98"/><rect x="21.77" y="13.78" width="0.99" height="0.98"/><rect x="21.77" y="9.84" width="0.99" height="0.99"/><rect x="21.77" y="4.92" width="0.99" height="0.98"/><rect x="20.78" y="22.64" width="0.99" height="0.98"/><rect x="20.78" y="18.71" width="0.99" height="0.98"/><rect x="20.78" y="13.78" width="0.99" height="0.98"/><rect x="20.78" y="9.84" width="0.99" height="0.99"/><rect x="20.78" y="8.86" width="0.99" height="0.98"/><rect x="20.78" y="7.88" width="0.99" height="0.98"/><rect x="20.78" y="6.89" width="0.99" height="0.99"/><rect x="20.78" y="5.91" width="0.99" height="0.98"/><rect x="20.78" y="4.92" width="0.99" height="0.98"/><rect x="20.78" y="3.93" width="0.99" height="0.99"/><rect x="20.78" y="2.95" width="0.99" height="0.98"/><rect x="20.78" y="1.96" width="0.99" height="0.99"/><rect x="20.78" y="0.98" width="0.99" height="0.98"/><rect x="20.78" width="0.99" height="0.98"/><rect x="19.79" y="22.64" width="0.99" height="0.98"/><rect x="19.79" y="18.71" width="0.99" height="0.98"/><rect x="19.79" y="14.77" width="0.99" height="0.99"/><rect x="19.79" y="13.78" width="0.99" height="0.98"/><rect x="19.79" y="12.79" width="0.99" height="0.99"/><rect x="19.79" y="11.81" width="0.99" height="0.98"/><rect x="19.79" y="9.84" width="0.99" height="0.99"/><rect x="19.79" y="4.92" width="0.99" height="0.98"/><rect x="18.8" y="22.64" width="0.99" height="0.98"/><rect x="18.8" y="18.71" width="0.99" height="0.98"/><rect x="18.8" y="15.76" width="0.99" height="0.98"/><rect x="18.8" y="14.77" width="0.99" height="0.99"/><rect x="18.8" y="13.78" width="0.99" height="0.98"/><rect x="18.8" y="11.81" width="0.99" height="0.98"/><rect x="18.8" y="9.84" width="0.99" height="0.99"/><rect x="18.8" y="4.92" width="0.99" height="0.98"/><rect x="17.81" y="22.64" width="0.99" height="0.98"/><rect x="17.81" y="18.71" width="0.99" height="0.98"/><rect x="17.81" y="16.74" width="0.99" height="0.98"/><rect x="17.81" y="15.76" width="0.99" height="0.98"/><rect x="17.81" y="13.78" width="0.99" height="0.98"/><rect x="17.81" y="11.81" width="0.99" height="0.98"/><rect x="17.81" y="9.84" width="0.99" height="0.99"/><rect x="17.81" y="4.92" width="0.99" height="0.98"/><rect x="16.82" y="22.64" width="0.99" height="0.98"/><rect x="16.82" y="18.71" width="0.99" height="0.98"/><rect x="16.82" y="16.74" width="0.99" height="0.98"/><rect x="16.82" y="15.76" width="0.99" height="0.98"/><rect x="16.82" y="14.77" width="0.99" height="0.99"/><rect x="16.82" y="13.78" width="0.99" height="0.98"/><rect x="16.82" y="12.79" width="0.99" height="0.99"/><rect x="16.82" y="11.81" width="0.99" height="0.98"/><rect x="16.82" y="10.83" width="0.99" height="0.98"/><rect x="16.82" y="9.84" width="0.99" height="0.99"/><rect x="16.82" y="8.86" width="0.99" height="0.98"/><rect x="16.82" y="7.88" width="0.99" height="0.98"/><rect x="16.82" y="6.89" width="0.99" height="0.99"/><rect x="16.82" y="5.91" width="0.99" height="0.98"/><rect x="16.82" y="4.92" width="0.99" height="0.98"/><rect x="15.83" y="22.64" width="0.99" height="0.98"/><rect x="15.83" y="18.71" width="0.99" height="0.98"/><rect x="15.83" y="13.78" width="0.99" height="0.98"/><rect x="15.83" y="9.84" width="0.99" height="0.99"/><rect x="15.83" y="4.92" width="0.99" height="0.98"/><rect x="14.84" y="22.64" width="0.99" height="0.98"/><rect x="14.84" y="19.69" width="0.99" height="0.98"/><rect x="14.84" y="18.71" width="0.99" height="0.98"/><rect x="14.84" y="17.72" width="0.99" height="0.99"/><rect x="14.84" y="13.78" width="0.99" height="0.98"/><rect x="14.84" y="9.84" width="0.99" height="0.99"/><rect x="14.84" y="4.92" width="0.99" height="0.98"/><rect x="13.85" y="22.64" width="0.99" height="0.98"/><rect x="13.85" y="20.67" width="0.99" height="0.99"/><rect x="13.85" y="19.69" width="0.99" height="0.98"/><rect x="13.85" y="18.71" width="0.99" height="0.98"/><rect x="13.85" y="17.72" width="0.99" height="0.99"/><rect x="13.85" y="16.74" width="0.99" height="0.98"/><rect x="13.85" y="13.78" width="0.99" height="0.98"/><rect x="13.85" y="9.84" width="0.99" height="0.99"/><rect x="13.85" y="4.92" width="0.99" height="0.98"/><rect x="12.87" y="22.64" width="0.99" height="0.98"/><rect x="12.87" y="21.66" width="0.99" height="0.98"/><rect x="12.87" y="18.71" width="0.99" height="0.98"/><rect x="12.87" y="16.74" width="0.99" height="0.98"/><rect x="12.87" y="15.76" width="0.99" height="0.98"/><rect x="12.87" y="13.78" width="0.99" height="0.98"/><rect x="12.87" y="9.84" width="0.99" height="0.99"/><rect x="12.87" y="4.92" width="0.99" height="0.98"/><rect x="11.88" y="25.6" width="0.99" height="0.98"/><rect x="11.88" y="24.62" width="0.99" height="0.98"/><rect x="11.88" y="23.63" width="0.99" height="0.99"/><rect x="11.88" y="22.64" width="0.99" height="0.98"/><rect x="11.88" y="21.66" width="0.99" height="0.98"/><rect x="11.88" y="18.71" width="0.99" height="0.98"/><rect x="11.88" y="15.76" width="0.99" height="0.98"/><rect x="11.88" y="14.77" width="0.99" height="0.99"/><rect x="11.88" y="13.78" width="0.99" height="0.98"/><rect x="11.88" y="9.84" width="0.99" height="0.99"/><rect x="11.88" y="5.91" width="0.99" height="0.98"/><rect x="11.88" y="4.92" width="0.99" height="0.98"/><rect x="11.88" y="3.93" width="0.99" height="0.99"/><rect x="11.88" y="2.95" width="0.99" height="0.98"/><rect x="11.88" y="1.96" width="0.99" height="0.99"/><rect x="10.89" y="27.57" width="0.99" height="0.98"/><rect x="10.89" y="26.58" width="0.99" height="0.99"/><rect x="10.89" y="25.6" width="0.99" height="0.98"/><rect x="10.89" y="24.62" width="0.99" height="0.98"/><rect x="10.89" y="23.63" width="0.99" height="0.99"/><rect x="10.89" y="22.64" width="0.99" height="0.98"/><rect x="10.89" y="21.66" width="0.99" height="0.98"/><rect x="10.89" y="20.67" width="0.99" height="0.99"/><rect x="10.89" y="19.69" width="0.99" height="0.98"/><rect x="10.89" y="18.71" width="0.99" height="0.98"/><rect x="10.89" y="15.76" width="0.99" height="0.98"/><rect x="10.89" y="14.77" width="0.99" height="0.99"/><rect x="10.89" y="13.78" width="0.99" height="0.98"/><rect x="10.89" y="9.84" width="0.99" height="0.99"/><rect x="10.89" y="7.88" width="0.99" height="0.98"/><rect x="10.89" y="6.89" width="0.99" height="0.99"/><rect x="10.89" y="5.91" width="0.99" height="0.98"/><rect x="10.89" y="4.92" width="0.99" height="0.98"/><rect x="10.89" y="0.98" width="0.99" height="0.98"/><rect x="10.89" width="0.99" height="0.98"/><rect x="9.9" y="28.55" width="0.99" height="0.99"/><rect x="9.9" y="27.57" width="0.99" height="0.98"/><rect x="9.9" y="22.64" width="0.99" height="0.98"/><rect x="9.9" y="18.71" width="0.99" height="0.98"/><rect x="9.9" y="17.72" width="0.99" height="0.99"/><rect x="9.9" y="16.74" width="0.99" height="0.98"/><rect x="9.9" y="15.76" width="0.99" height="0.98"/><rect x="9.9" y="14.77" width="0.99" height="0.99"/><rect x="9.9" y="13.78" width="0.99" height="0.98"/><rect x="9.9" y="12.79" width="0.99" height="0.99"/><rect x="9.9" y="9.84" width="0.99" height="0.99"/><rect x="9.9" y="8.86" width="0.99" height="0.98"/><rect x="9.9" y="7.88" width="0.99" height="0.98"/><rect x="9.9" y="6.89" width="0.99" height="0.99"/><rect x="9.9" y="4.92" width="0.99" height="0.98"/><rect x="9.9" width="0.99" height="0.98"/><rect x="8.91" y="28.55" width="0.99" height="0.99"/><rect x="8.91" y="22.64" width="0.99" height="0.98"/><rect x="8.91" y="18.71" width="0.99" height="0.98"/><rect x="8.91" y="15.76" width="0.99" height="0.98"/><rect x="8.91" y="14.77" width="0.99" height="0.99"/><rect x="8.91" y="13.78" width="0.99" height="0.98"/><rect x="8.91" y="12.79" width="0.99" height="0.99"/><rect x="8.91" y="11.81" width="0.99" height="0.98"/><rect x="8.91" y="10.83" width="0.99" height="0.98"/><rect x="8.91" y="9.84" width="0.99" height="0.99"/><rect x="8.91" y="8.86" width="0.99" height="0.98"/><rect x="8.91" y="4.92" width="0.99" height="0.98"/><rect x="8.91" y="0.98" width="0.99" height="0.98"/><rect x="8.91" width="0.99" height="0.98"/><rect x="7.92" y="29.54" width="0.99" height="0.98"/><rect x="7.92" y="26.58" width="0.99" height="0.99"/><rect x="7.92" y="25.6" width="0.99" height="0.98"/><rect x="7.92" y="22.64" width="0.99" height="0.98"/><rect x="7.92" y="19.69" width="0.99" height="0.98"/><rect x="7.92" y="18.71" width="0.99" height="0.98"/><rect x="7.92" y="15.76" width="0.99" height="0.98"/><rect x="7.92" y="13.78" width="0.99" height="0.98"/><rect x="7.92" y="10.83" width="0.99" height="0.98"/><rect x="7.92" y="9.84" width="0.99" height="0.99"/><rect x="7.92" y="8.86" width="0.99" height="0.98"/><rect x="7.92" y="7.88" width="0.99" height="0.98"/><rect x="7.92" y="6.89" width="0.99" height="0.99"/><rect x="7.92" y="4.92" width="0.99" height="0.98"/><rect x="7.92" y="1.96" width="0.99" height="0.99"/><rect x="6.93" y="29.54" width="0.99" height="0.98"/><rect x="6.93" y="28.55" width="0.99" height="0.99"/><rect x="6.93" y="27.57" width="0.99" height="0.98"/><rect x="6.93" y="26.58" width="0.99" height="0.99"/><rect x="6.93" y="25.6" width="0.99" height="0.98"/><rect x="6.93" y="24.62" width="0.99" height="0.98"/><rect x="6.93" y="22.64" width="0.99" height="0.98"/><rect x="6.93" y="21.66" width="0.99" height="0.98"/><rect x="6.93" y="18.71" width="0.99" height="0.98"/><rect x="6.93" y="17.72" width="0.99" height="0.99"/><rect x="6.93" y="16.74" width="0.99" height="0.98"/><rect x="6.93" y="13.78" width="0.99" height="0.98"/><rect x="6.93" y="12.79" width="0.99" height="0.99"/><rect x="6.93" y="11.81" width="0.99" height="0.98"/><rect x="6.93" y="10.83" width="0.99" height="0.98"/><rect x="6.93" y="9.84" width="0.99" height="0.99"/><rect x="6.93" y="5.91" width="0.99" height="0.98"/><rect x="6.93" y="4.92" width="0.99" height="0.98"/><rect x="6.93" y="3.93" width="0.99" height="0.99"/><rect x="6.93" y="2.95" width="0.99" height="0.98"/><rect x="5.94" y="28.55" width="0.99" height="0.99"/><rect x="5.94" y="27.57" width="0.99" height="0.98"/><rect x="5.94" y="26.58" width="0.99" height="0.99"/><rect x="5.94" y="25.6" width="0.99" height="0.98"/><rect x="5.94" y="24.62" width="0.99" height="0.98"/><rect x="5.94" y="22.64" width="0.99" height="0.98"/><rect x="5.94" y="21.66" width="0.99" height="0.98"/><rect x="5.94" y="20.67" width="0.99" height="0.99"/><rect x="5.94" y="18.71" width="0.99" height="0.98"/><rect x="5.94" y="13.78" width="0.99" height="0.98"/><rect x="5.94" y="12.79" width="0.99" height="0.99"/><rect x="5.94" y="11.81" width="0.99" height="0.98"/><rect x="5.94" y="9.84" width="0.99" height="0.99"/><rect x="5.94" y="4.92" width="0.99" height="0.98"/><rect x="4.95" y="27.57" width="0.99" height="0.98"/><rect x="4.95" y="26.58" width="0.99" height="0.99"/><rect x="4.95" y="25.6" width="0.99" height="0.98"/><rect x="4.95" y="22.64" width="0.99" height="0.98"/><rect x="4.95" y="20.67" width="0.99" height="0.99"/><rect x="4.95" y="19.69" width="0.99" height="0.98"/><rect x="4.95" y="18.71" width="0.99" height="0.98"/><rect x="4.95" y="15.76" width="0.99" height="0.98"/><rect x="4.95" y="14.77" width="0.99" height="0.99"/><rect x="4.95" y="13.78" width="0.99" height="0.98"/><rect x="4.95" y="12.79" width="0.99" height="0.99"/><rect x="4.95" y="9.84" width="0.99" height="0.99"/><rect x="4.95" y="4.92" width="0.99" height="0.98"/><rect x="3.96" y="22.64" width="0.99" height="0.98"/><rect x="3.96" y="18.71" width="0.99" height="0.98"/><rect x="3.96" y="17.72" width="0.99" height="0.99"/><rect x="3.96" y="16.74" width="0.99" height="0.98"/><rect x="3.96" y="15.76" width="0.99" height="0.98"/><rect x="3.96" y="14.77" width="0.99" height="0.99"/><rect x="3.96" y="13.78" width="0.99" height="0.98"/><rect x="3.96" y="9.84" width="0.99" height="0.99"/><rect x="3.96" y="4.92" width="0.99" height="0.98"/><rect x="2.97" y="22.64" width="0.99" height="0.98"/><rect x="2.97" y="18.71" width="0.99" height="0.98"/><rect x="2.97" y="13.78" width="0.99" height="0.98"/><rect x="2.97" y="9.84" width="0.99" height="0.99"/><rect x="2.97" y="4.92" width="0.99" height="0.98"/><rect x="1.98" y="22.64" width="0.99" height="0.98"/><rect x="1.98" y="18.71" width="0.99" height="0.98"/><rect x="1.98" y="13.78" width="0.99" height="0.98"/><rect x="1.98" y="9.84" width="0.99" height="0.99"/><rect x="1.98" y="4.92" width="0.99" height="0.98"/><rect x="0.99" y="22.64" width="0.99" height="0.98"/><rect x="0.99" y="18.71" width="0.99" height="0.98"/><rect x="0.99" y="13.78" width="0.99" height="0.98"/><rect x="0.99" y="9.84" width="0.99" height="0.99"/><rect x="0.99" y="4.92" width="0.99" height="0.98"/><rect y="22.64" width="0.99" height="0.98"/><rect y="18.71" width="0.99" height="0.98"/><rect y="13.78" width="0.99" height="0.98"/><rect y="9.84" width="0.99" height="0.99"/><rect y="4.92" width="0.99" height="0.98"/></g></g></svg>